<svg width="60" height="60" viewBox="-1 -5 40 60" style="background-color: #fffffe" xmlns="http://www.w3.org/2000/svg">
<path d="M31.1836 30.0066C34.3818 25.4803 35.7334 20.0818 34.9922 14.8035C34.6778 12.5707 33.9267 10.4217 32.7818 8.47913C31.6369 6.5366 30.1206 4.83859 28.3195 3.48207C26.5184 2.12555 24.4677 1.13708 22.2845 0.5731C20.1014 0.00911926 17.8285 -0.119327 15.5957 0.195096C6.2207 1.51248 -0.335942 10.2127 0.981441 19.5877C1.7207 24.8504 4.50878 29.6619 8.83007 33.1365C11.2305 35.0584 13.9385 36.408 16.5078 37.0115C16.7021 37.0582 16.8711 37.1775 16.9801 37.345C17.0891 37.5125 17.1297 37.7153 17.0937 37.9119L16.6182 40.4881C16.5491 40.8386 16.6 41.2022 16.7627 41.5203C16.8948 41.7739 17.0939 41.9864 17.3384 42.1347C17.5829 42.283 17.8635 42.3613 18.1494 42.3611C18.2223 42.3613 18.2951 42.356 18.3672 42.3455L20.1064 42.1013C20.1479 42.0956 20.1901 42.1033 20.2269 42.1233C20.2636 42.1434 20.2929 42.1747 20.3105 42.2127C21.9434 45.7586 24.75 48.448 28.333 49.865C28.5291 49.9425 28.7389 49.9795 28.9497 49.9737C29.1605 49.968 29.3679 49.9196 29.5596 49.8316C29.7512 49.7435 29.923 49.6176 30.0646 49.4614C30.2063 49.3052 30.3148 49.1219 30.3838 48.9226C30.6602 48.1238 30.2236 47.2556 29.4385 46.9422C26.9871 45.9629 24.9438 44.1753 23.6475 41.8758C23.6311 41.848 23.6218 41.8167 23.6204 41.7845C23.6191 41.7523 23.6257 41.7203 23.6397 41.6913C23.6537 41.6623 23.6747 41.6372 23.7007 41.6183C23.7268 41.5993 23.7571 41.5872 23.7891 41.5828L24.5117 41.4851C24.8898 41.4364 25.2385 41.2555 25.4961 40.9744C25.7045 40.7413 25.8381 40.451 25.8797 40.1411C25.9213 39.8312 25.869 39.5159 25.7295 39.2361L24.5518 36.8699C24.4623 36.6902 24.4454 36.4829 24.5047 36.291C24.564 36.0992 24.6948 35.9375 24.8701 35.8396C27.1738 34.5535 29.4062 32.5193 31.1836 30.0066ZM16.0566 31.6453C15.8601 31.6453 15.6652 31.6082 15.4824 31.5359C11.4531 29.9422 8.03125 26.3894 6.55175 22.2644C6.47965 22.0707 6.44673 21.8645 6.45488 21.6579C6.46304 21.4513 6.51212 21.2484 6.59928 21.0609C6.68644 20.8734 6.80994 20.7051 6.96263 20.5657C7.11532 20.4262 7.29416 20.3185 7.48879 20.2487C7.68341 20.179 7.88995 20.1485 8.09644 20.1591C8.30292 20.1697 8.50525 20.2212 8.69168 20.3106C8.87812 20.4 9.04496 20.5255 9.18254 20.6798C9.32012 20.8342 9.4257 21.0143 9.49316 21.2097C10.9092 25.159 14.1094 27.6326 16.6318 28.6316C16.9701 28.7653 17.2512 29.0129 17.4265 29.3316C17.6019 29.6503 17.6605 30.0202 17.5924 30.3775C17.5242 30.7348 17.3335 31.0572 17.0532 31.2889C16.7728 31.5207 16.4204 31.6474 16.0566 31.6472V31.6453Z" fill="#201467"/>
</svg>